<svg id="Layer_1" data-name="Layer 1" xmlns="http://www.w3.org/2000/svg" viewBox="0 0 708.35 627.54"><defs><style>.cls-1,.cls-2{fill:#c7a35e;}.cls-2{stroke:#c7a35e;stroke-miterlimit:10;stroke-width:4px;}</style></defs><polygon class="cls-1" points="416.58 235.98 429.97 235.98 416.58 173.12 416.58 235.98"/><polygon class="cls-1" points="292.14 235.98 305.53 235.98 292.14 173.12 292.14 235.98"/><polygon class="cls-1" points="290.53 235.98 290.53 173.12 277.14 235.98 290.53 235.98"/><polygon class="cls-1" points="414.98 235.98 414.98 173.12 401.58 235.98 414.98 235.98"/><path class="cls-1" d="M452.73,161.9A108.9,108.9,0,0,0,430.32,126a100.89,100.89,0,0,0-33.95-23.46,114.2,114.2,0,0,0-85.63,0A101,101,0,0,0,276.79,126a108.84,108.84,0,0,0-22.41,35.86c-5.34,13.77-8,29.21-8,45.9s2.71,32.2,8,46.07a108.56,108.56,0,0,0,22.41,36,100.75,100.75,0,0,0,33.95,23.46,114.07,114.07,0,0,0,85.63,0,100.84,100.84,0,0,0,33.95-23.46,108.45,108.45,0,0,0,22.41-36,127.9,127.9,0,0,0,8.06-46.07C460.79,191.12,458.08,175.68,452.73,161.9Zm-161.4,95.56c-22.76,0-22.59-13.8-28.75-17h57.51C313.93,243.66,314.1,257.46,291.33,257.46Zm124.45,0c-22.77,0-22.59-13.8-28.76-17h57.51C438.37,243.66,438.54,257.46,415.78,257.46ZM447,239.14H384.54V236h15.4l15-70.47c-15.7-.46-23-7.87-34.79-7.79-17.7.12-22.43,19.36-23.67,28.34,1,17.32,9.83,19.21,9.83,35.06,0,16.82-9.93,25.59-9.93,25.59s-2.83,26,5.09,31.8c5.29,3.91,7,10.09,7.62,13.77.48.1.93.21,1.34.32,5.24,1.47,9.74,2.82,7.2,8.09s-24.08,5.24-24.08,5.24-21.56,0-24.09-5.24,2-6.62,7.2-8.09c.41-.11.86-.22,1.34-.32.59-3.68,2.33-9.86,7.63-13.77,7.92-5.84,5.08-31.8,5.08-31.8s-9.92-8.77-9.92-25.59c0-15.85,8.81-17.74,9.82-35.06-1.24-9-6-28.22-23.66-28.34-11.78-.08-19.1,7.33-34.8,7.79l15,70.47h15.4v3.16H260.1V236h15.4l15-70.43c-7.54,0-11.7-3.1-13.66-5.16a6.11,6.11,0,0,1-2.83-5.22,5.69,5.69,0,1,1,11.35,0,6.09,6.09,0,0,1-3,5.33c14.55,7.16,29.87-13.77,45.8-13.77,12.8,0,19.8,5.1,22.41,7.52-.08-6.9-.16-11.36-.16-11.36s-8.9-4-8.9-16.82c0-4.27,8.75-9.87,12.08-16.08a17.09,17.09,0,0,1,12.78,13.38,18.12,18.12,0,0,1-9.61,19.52s-.08,4.46-.16,11.36c2.61-2.42,9.61-7.52,22.41-7.52,15.89,0,31.16,20.81,45.68,13.84a6.1,6.1,0,0,1-3.15-5.4,5.69,5.69,0,1,1,11.36,0,6.19,6.19,0,0,1-2.12,4.69c-1.7,2-5.91,5.64-14.14,5.69l15,70.43H447Z"/><path class="cls-1" d="M461.79,157.89a118.49,118.49,0,0,0-24.44-39.12,109.89,109.89,0,0,0-37.09-25.62,124.25,124.25,0,0,0-93.4,0,109.69,109.69,0,0,0-37.09,25.62,118.19,118.19,0,0,0-24.45,39.12q-8.77,22.59-8.77,49.9t8.77,50.07a117.74,117.74,0,0,0,24.45,39.29,109.69,109.69,0,0,0,37.09,25.62,124.25,124.25,0,0,0,93.4,0,109.89,109.89,0,0,0,37.09-25.62,118,118,0,0,0,24.44-39.29q8.76-22.76,8.77-50.07T461.79,157.89Zm-4.31,97.81A113.84,113.84,0,0,1,434,293.39,106.16,106.16,0,0,1,398.37,318a119.27,119.27,0,0,1-89.63,0,105.83,105.83,0,0,1-35.64-24.63,113.58,113.58,0,0,1-23.47-37.69c-5.57-14.46-8.39-30.57-8.39-47.9s2.82-33.39,8.39-47.74a114.15,114.15,0,0,1,23.47-37.53A106,106,0,0,1,308.75,97.9a119.24,119.24,0,0,1,89.62,0A106.11,106.11,0,0,1,434,122.53a114.35,114.35,0,0,1,23.46,37.53h0c5.57,14.37,8.39,30.43,8.39,47.74S463.05,241.23,457.48,255.7Z"/><path class="cls-2" d="M54.53,542v-6.39l5.11-.51a74.6,74.6,0,0,0,13.67-2.55Q78,531,79.82,525.36t1.79-18.14V393.81q0-12.76-1.79-18.26t-6.51-7.16A59.06,59.06,0,0,0,59.64,366l-5.11-.51v-6.39l38.32.77,33-.77V365l-4.09.51a45.54,45.54,0,0,0-11.36,2.3c-2.65,1-4.47,3.19-5.5,6.51s-1.53,8.81-1.53,16.47V497.26A125.28,125.28,0,0,0,104.73,518q1.39,8.17,7.79,12t20.69,3.84h19.15q22.23,0,32.06-11.88T196,487.55h5.62L199.11,542l-106.77-.77Z"/><path class="cls-2" d="M412,535.06q-10.21-1-16.09-6.89t-11-18.39L324.69,359.84H316L254.19,509.78a60.19,60.19,0,0,1-8.05,14.43,24.25,24.25,0,0,1-10,7.53,65,65,0,0,1-14.69,3.58l-2.3.25V542l30.91-.77,32.44.77v-6.39l-5.11-.51q-9.71-.76-13.92-3.32a8.16,8.16,0,0,1-4.21-7.41,20.37,20.37,0,0,1,1.27-6.51c.85-2.47,1.88-5.24,3.07-8.3l13.79-33.21h72l13.29,33.21q3.57,8.68,3.57,13.79a9.25,9.25,0,0,1-3.83,7.92q-3.83,2.82-12.77,3.83l-5.11.51V542l40.87-.77,31.67.77v-6.39ZM280,468.13l33.47-81,32.18,81Z"/><path class="cls-2" d="M457.39,543.49l-50.07-154q-3.31-11-9.19-16a32,32,0,0,0-14.05-6.77l-5.88-1.27v-6.39l38.32.77,37.8-.77v6.39l-7.15.76a52,52,0,0,0-12.9,3.07q-6,2.29-6,10.22a27.69,27.69,0,0,0,1.78,8.94L469.14,509l44.44-120.82a25.28,25.28,0,0,0,1.53-7.66,10.6,10.6,0,0,0-4.34-9.07q-4.35-3.19-11.75-4.22l-10.22-1.53,1-6.64,10.72,1.28q18.39,2,22.48,11.24,3.84-7.66,11.37-9.71a64.32,64.32,0,0,1,14.43-2.3l9.45-.51.51,6.64-9.7.77q-16.62,1.27-16.61,14a33.67,33.67,0,0,0,2.56,12l42.65,115.71,37.55-122.86a29.29,29.29,0,0,0,1.28-7.41q0-5.61-3.83-7.92t-11.24-3.32l-8.43-1v-6.64l33.72.77,27.07-.77v6.64l-6.13,1a38.35,38.35,0,0,0-14.43,5,18.1,18.1,0,0,0-8,10.86l-49,160.92H568l-51.6-137.68L465.56,543.49Z"/><path class="cls-2" d="M136.37,325.41a63.64,63.64,0,0,1-23.8-4.27q-10.68-4.26-19.21-8.53a128.17,128.17,0,0,0-12-5.91,22.22,22.22,0,0,0-8.37-2q-4.61,0-6.4,3.77a37.57,37.57,0,0,0-2.79,8.37l-1,4.93h-8.2l1.64-38.74-1-42.34h8.21l3.61,15.42a88.47,88.47,0,0,0,13,28.24A77.88,77.88,0,0,0,103.7,307q14.28,8.87,32.67,8.86a45.18,45.18,0,0,0,19.53-4.43,37.64,37.64,0,0,0,15.43-13.63q6.07-9.18,6.07-24,0-22-14.28-35.45t-39.56-25.61l-13.78-6.56q-24.63-11.82-36.6-26.1t-12-36.6q0-17.4,8.54-30.86a58.34,58.34,0,0,1,23.47-21q14.94-7.55,34.3-7.55,13.47,0,22.65,3.61T164.6,94q8.53,4.26,13.46,4.27,5.25,0,6.24-10.18h8.2l-1,31.51.65,31.85H184q-2-18.39-10.18-31.35a59.37,59.37,0,0,0-19.86-19.87,47.94,47.94,0,0,0-24.78-6.89q-19.38,0-31.35,11.16T85.81,133q0,18.72,12.15,29.38t31.51,20.19l13.46,6.57a214.67,214.67,0,0,1,31,18.22,68.54,68.54,0,0,1,20,21.83Q201,241.71,201,260.41q0,19.38-8.7,34.14A60.58,60.58,0,0,1,169,317.37,66.61,66.61,0,0,1,136.37,325.41Z"/><path class="cls-2" d="M589.05,325.41a63.64,63.64,0,0,1-23.8-4.27q-10.68-4.26-19.21-8.53a128.17,128.17,0,0,0-12-5.91,22.22,22.22,0,0,0-8.37-2q-4.61,0-6.4,3.77a38.08,38.08,0,0,0-2.79,8.37l-1,4.93h-8.21L509,283.06l-1-42.34h8.2l3.61,15.42a88.47,88.47,0,0,0,13,28.24A77.91,77.91,0,0,0,556.39,307q14.28,8.87,32.66,8.86a45.18,45.18,0,0,0,19.53-4.43A37.64,37.64,0,0,0,624,297.83q6.07-9.18,6.07-24,0-22-14.28-35.45t-39.55-25.61l-13.79-6.56q-24.63-11.82-36.6-26.1t-12-36.6q0-17.4,8.54-30.86a58.34,58.34,0,0,1,23.47-21q14.94-7.55,34.31-7.55,13.45,0,22.65,3.61T617.28,94q8.54,4.26,13.46,4.27,5.25,0,6.24-10.18h8.2l-1,31.51.65,31.85h-8.2q-2-18.39-10.18-31.35a59.37,59.37,0,0,0-19.86-19.87,47.94,47.94,0,0,0-24.78-6.89q-19.38,0-31.35,11.16t-12,28.56q0,18.72,12.15,29.38t31.51,20.19l13.46,6.57a215.36,215.36,0,0,1,31,18.22,68.62,68.62,0,0,1,20,21.83q7.05,12.48,7.06,31.18,0,19.38-8.7,34.14a60.58,60.58,0,0,1-23.31,22.82A66.61,66.61,0,0,1,589.05,325.41Z"/></svg>