<svg id="Layer_1" data-name="Layer 1" xmlns="http://www.w3.org/2000/svg" viewBox="0 0 1450 450"><defs><style>.cls-1,.cls-2,.cls-3{fill:#c7a35e;}.cls-2,.cls-3{stroke:#c7a35e;stroke-miterlimit:10;}.cls-2{stroke-width:3px;}.cls-3{stroke-width:4px;}</style></defs><polygon class="cls-1" points="385.02 189.12 398.18 189.12 385.02 127.36 385.02 189.12"/><polygon class="cls-1" points="262.77 189.12 275.93 189.12 262.77 127.36 262.77 189.12"/><polygon class="cls-1" points="261.2 189.12 261.2 127.36 248.04 189.12 261.2 189.12"/><polygon class="cls-1" points="383.45 189.12 383.45 127.36 370.29 189.12 383.45 189.12"/><path class="cls-1" d="M420.54,116.34a107.28,107.28,0,0,0-22-35.23,99.14,99.14,0,0,0-33.35-23,112.12,112.12,0,0,0-84.13,0,99.18,99.18,0,0,0-33.36,23,107.06,107.06,0,0,0-22,35.23c-5.25,13.52-7.91,28.69-7.91,45.09s2.66,31.63,7.91,45.26a106.78,106.78,0,0,0,22,35.38,99.14,99.14,0,0,0,33.35,23,112.15,112.15,0,0,0,84.14,0,99.23,99.23,0,0,0,33.35-23,106.84,106.84,0,0,0,22-35.38c5.25-13.64,7.91-28.87,7.91-45.26S425.79,129.87,420.54,116.34ZM262,210.22c-22.36,0-22.19-13.56-28.24-16.7h56.49C284.18,196.66,284.35,210.22,262,210.22Zm122.26,0c-22.37,0-22.2-13.56-28.25-16.7h56.49C406.43,196.66,406.6,210.22,384.24,210.22Zm30.68-18H353.55v-3.1h15.13l14.75-69.23c-15.43-.46-22.62-7.73-34.19-7.65-17.38.11-22,19-23.25,27.84,1,17,9.66,18.86,9.66,34.44,0,16.52-9.76,25.14-9.76,25.14s-2.78,25.49,5,31.24c5.2,3.84,6.92,9.91,7.49,13.52.47.1.91.2,1.32.32,5.14,1.45,9.56,2.77,7.07,7.95s-23.66,5.14-23.66,5.14-21.17,0-23.66-5.14,1.93-6.5,7.07-7.95c.41-.12.85-.22,1.32-.32.57-3.61,2.29-9.68,7.49-13.52,7.78-5.75,5-31.24,5-31.24s-9.75-8.62-9.75-25.14c0-15.58,8.66-17.43,9.65-34.44-1.22-8.83-5.87-27.73-23.25-27.84-11.57-.08-18.76,7.19-34.19,7.65l14.76,69.23h15.12v3.1H231.3v-3.1h15.13l14.74-69.2c-7.41,0-11.5-3-13.42-5.06a6,6,0,0,1-2.79-5.13,5.59,5.59,0,1,1,11.16,0,6,6,0,0,1-3,5.24c14.29,7,29.34-13.54,45-13.54,12.58,0,19.46,5,22,7.39-.08-6.77-.16-11.16-.16-11.16s-8.74-4-8.74-16.52c0-4.19,8.59-9.69,11.86-15.8a16.8,16.8,0,0,1,12.56,13.15,17.79,17.79,0,0,1-9.44,19.17s-.08,4.39-.16,11.16c2.56-2.38,9.44-7.39,22-7.39,15.61,0,30.61,20.45,44.87,13.6a6,6,0,0,1-3.09-5.3,5.59,5.59,0,1,1,11.16,0,6.06,6.06,0,0,1-2.09,4.6c-1.67,2-5.8,5.55-13.89,5.59l14.75,69.2h15.12Z"/><path class="cls-1" d="M429.44,112.4a116.47,116.47,0,0,0-24-38.43A107.94,107.94,0,0,0,369,48.8a122.07,122.07,0,0,0-91.76,0A107.8,107.8,0,0,0,240.8,74a116.33,116.33,0,0,0-24,38.43q-8.62,22.2-8.61,49t8.61,49.19a115.64,115.64,0,0,0,24,38.59,107.55,107.55,0,0,0,36.43,25.18,122.2,122.2,0,0,0,91.76,0,107.69,107.69,0,0,0,36.44-25.18,115.78,115.78,0,0,0,24-38.59q8.61-22.35,8.61-49.19T429.44,112.4Zm-4.24,96.08a111.48,111.48,0,0,1-23.05,37,104.1,104.1,0,0,1-35,24.2,117.09,117.09,0,0,1-88,0,103.92,103.92,0,0,1-35-24.2,111.52,111.52,0,0,1-23-37c-5.48-14.2-8.25-30-8.25-47s2.77-32.8,8.25-46.9a111.88,111.88,0,0,1,23-36.86,104,104,0,0,1,35-24.2,117.09,117.09,0,0,1,88,0,104,104,0,0,1,35,24.2,111.94,111.94,0,0,1,23.05,36.86h0c5.48,14.12,8.25,29.89,8.25,46.9S430.68,194.27,425.2,208.48Z"/><path class="cls-2" d="M52.35,376.51c-5.15,0-8.92-1.81-8.92-5.73a14.62,14.62,0,0,1,1.62-5.73c2.05-4.35,7.2-8.81,15.62-13.46l-.29-3.68a41,41,0,0,1,3.87-4h.53c.2,7.59.2,15.23.3,22.82,0,3.43.39,5.63,1.86,6.9,1.13,1,3,1.28,5.14,1.28h1.18v6.27H72.18c-4.8,0-8.28-1.28-10.14-6.81A23.45,23.45,0,0,1,52.35,376.51ZM61,357c-8.71,4.51-13.27,8.13-13.27,10.73,0,1.91,2.94,2.74,6.27,2.74a23.53,23.53,0,0,0,7.25-1.37Zm-5.78-17.33c-2-1.91-3.77-3.48-5.73-5.1a45.56,45.56,0,0,1,3.87-4.65A46,46,0,0,1,59,335.18,25.85,25.85,0,0,1,55.23,339.69Zm9.46-.64c-2-1.91-3.77-3.48-5.73-5.09a43.27,43.27,0,0,1,3.87-4.66,47.51,47.51,0,0,1,5.58,5.24A25.91,25.91,0,0,1,64.69,339.05Z"/><path class="cls-2" d="M74.33,374.9c3.78,0,7.69-1.52,8.43-4.31l1.42-5.29,3.38-2.45.29.34a26.78,26.78,0,0,0-1.08,5.68,4.86,4.86,0,0,0,1.62,4.07,9.16,9.16,0,0,0,6.07,2h.88v6.27H94.22c-4.8,0-8.43-1.33-10.09-5h-.2c-1.66,3.28-5.53,5-9.74,5h-.93a3.14,3.14,0,0,1-3.43-3.28c0-1.18.78-3,3.43-3Zm5.54,25.81c-2-1.91-3.77-3.48-5.73-5.1A43.1,43.1,0,0,1,78,391a45.94,45.94,0,0,1,5.58,5.24A26.29,26.29,0,0,1,79.87,400.71Zm9.45-.64c-2-1.91-3.77-3.48-5.73-5.09a43.27,43.27,0,0,1,3.87-4.66A46.73,46.73,0,0,1,93,395.56,25.91,25.91,0,0,1,89.32,400.07Z"/><path class="cls-2" d="M96.18,374.9c4.16,0,7.49-.15,9.64-.93,1.72-.64,2.8-1.32,2.8-2.16,0-2.3-2.36-7.1-4.9-12.09a38.57,38.57,0,0,1,3.67-5.54h.25c2.25,4,4.89,10.09,4.89,14.94a14.69,14.69,0,0,1-3.43,9.11c-2.2,2.2-5.68,2.94-13.17,2.94h-.59a3.14,3.14,0,0,1-3.42-3.28c0-1.18.78-3,3.42-3Zm6.8-36.44a44.08,44.08,0,0,1,5.88,5.24,19.82,19.82,0,0,1-4.06,4.8c-1.91-1.81-3.82-3.38-5.78-5C100.34,341.69,101.66,340,103,338.46Z"/><path class="cls-2" d="M147.4,374.9v6.27h-4.06a22.86,22.86,0,0,1-3.73,10c-3.77,5.73-9.2,8.37-11.8,8.37-4.45,0-9.4-2.06-14.1-4.95l.83-1.61a14.86,14.86,0,0,0,7.2,1.76c5,0,9.4-2.45,13.61-6.76,2.36-2.4,4-4.36,4.61-6.85h-2.4c-10,0-15.09-3.19-15.09-10a13.29,13.29,0,0,1,2.5-7.89c1.86-2.69,4.46-4.7,7.54-4.7,4.51,0,9.16,6.32,10.53,16.36Zm-11.12-7.15a7.12,7.12,0,0,0-5.19-2.74c-2.74,0-5.53,2.35-5.53,4.31,0,2.49,2.3,4,5.34,4.84a33.57,33.57,0,0,0,8.81.74A15,15,0,0,0,136.28,367.75Z"/><path class="cls-2" d="M148.23,374.9c4.17,0,7.5-.15,9.65-.93,1.72-.64,2.79-1.32,2.79-2.16,0-2.3-2.35-7.1-4.89-12.09a38.57,38.57,0,0,1,3.67-5.54h.24c2.26,4,4.9,10.09,4.9,14.94a14.69,14.69,0,0,1-3.43,9.11c-2.2,2.2-5.68,2.94-13.17,2.94h-.59a3.15,3.15,0,0,1-3.43-3.28c0-1.18.79-3,3.43-3ZM155,338.46a44.08,44.08,0,0,1,5.88,5.24,19.64,19.64,0,0,1-4.07,4.8c-1.91-1.81-3.82-3.38-5.77-5C152.4,341.69,153.72,340,155,338.46Z"/><path class="cls-2" d="M186.14,381.17h-.54c-3.87,0-6.37-.79-8.37-2.79-3-3-3-6.52-3-13.72,0-9.3-.54-19.05-1.27-29.43a43.18,43.18,0,0,1,4.6-4.55l.34.19c.79,10.73.79,23.41.79,35.46v2.79a5.12,5.12,0,0,0,3.67,5.24,9.91,9.91,0,0,0,3.13.54h.69Z"/><path class="cls-2" d="M187,374.9a37.62,37.62,0,0,0,7.89-1.18,13.41,13.41,0,0,1-1.72-7.44,16.54,16.54,0,0,1,4.41-11.51c2.55-2.74,5.63-4.55,7.4-4.55s3.91,1.95,5.73,5.43a15,15,0,0,1,1.86,7A21.82,21.82,0,0,1,209.25,374a27.91,27.91,0,0,0,7.64.88h1.57v6.27H217A46.41,46.41,0,0,1,201,378c-6.22,2.21-10.68,3.14-14,3.14h-.88a3.15,3.15,0,0,1-3.43-3.28c0-1.18.79-3,3.43-3Zm11.51-30.32c-2-1.91-3.77-3.47-5.73-5.09a44.3,44.3,0,0,1,3.87-4.65,45.94,45.94,0,0,1,5.58,5.24A25.81,25.81,0,0,1,198.48,344.58Zm11.36,21.7a10.32,10.32,0,0,0-1.17-4.41c-1.33-2.59-2.84-4.41-4.85-4.41-3.82,0-7.54,4.56-8.42,8.18.68,2.84,2.49,5.24,6.7,6.52C205.48,371.47,209.84,368.29,209.84,366.28ZM207.93,344c-2-1.91-3.77-3.48-5.73-5.1a46.68,46.68,0,0,1,3.87-4.65,46.73,46.73,0,0,1,5.58,5.24A26.29,26.29,0,0,1,207.93,344Z"/><path class="cls-2" d="M219.54,374.9a11,11,0,0,0,5.48-1.32c1.72-1,2.6-2.75,2.6-5.29-.1-7.84-.64-16.41-1.42-25.42-.2-2.25-.49-4.31-.49-6.12a4.93,4.93,0,0,1,1.47-3.28,23.48,23.48,0,0,1,2.69-2.7l.35.25c-.1,3.18,1.42,7,4,11.21a27.52,27.52,0,0,1-3.08,2.5c.19,5.63.63,11.56.63,17s-.53,9.36-1.95,12.3c-1,2.49-2.21,4.55-4.46,5.68a14,14,0,0,1-6.12,1.47h-.74a3.15,3.15,0,0,1-3.43-3.28c0-1.18.79-3,3.43-3Z"/><path class="cls-2" d="M242.65,382a64.63,64.63,0,0,0,.54-9.8v-4.79c0-9-1-22-1.76-30.47a44.49,44.49,0,0,1,4.8-5.19l.44.15c1,10.68,1.27,23.07,1.27,34.48a76.32,76.32,0,0,1-.34,8.08c-.15,2.69-1.47,4.75-4.31,7.88Z"/><path class="cls-2" d="M308.21,383.13c-13.56,0-24-5-24-17.05a24.58,24.58,0,0,1,2.89-11.85l1.95.83a24.15,24.15,0,0,0-1.42,7.45c0,9.89,9.75,14,22,14a73.53,73.53,0,0,0,16.75-2.11,38.31,38.31,0,0,0,6.46-2c.4-.15.49-.39.49-.54,0-2.3-2.35-7.1-4.89-12.09a38.57,38.57,0,0,1,3.67-5.54h.25c2.25,4,4.89,10.09,4.89,14.94a14.51,14.51,0,0,1-2.59,8.18C330.45,379.89,317.91,383.13,308.21,383.13Zm-1.91-32.67c-2-1.91-3.77-3.48-5.73-5.09a44.5,44.5,0,0,1,3.87-4.65A45.22,45.22,0,0,1,310,346,26.67,26.67,0,0,1,306.3,350.46Zm9.45-.64c-2-1.91-3.77-3.47-5.72-5.09a44.29,44.29,0,0,1,3.86-4.65,46,46,0,0,1,5.59,5.24A25.39,25.39,0,0,1,315.75,349.82Z"/><path class="cls-2" d="M358.85,381.17h-.54c-3.87,0-6.36-.79-8.37-2.79-3-3-3-6.52-3-13.72,0-9.3-.54-19.05-1.27-29.43a43.18,43.18,0,0,1,4.6-4.55l.35.19c.78,10.73.78,23.41.78,35.46v2.79a5.12,5.12,0,0,0,3.67,5.24,10,10,0,0,0,3.14.54h.68Z"/><path class="cls-2" d="M359.93,374.9c3.62,0,6.46-2.5,8.23-8.67a15,15,0,0,1,3.62-5.93,9.19,9.19,0,0,1,6.17-2.84c6,0,9.5,8.23,10.29,16.8-1,4.46-2.84,6.32-5.2,6.32-4.84,0-9.69-2.2-14.54-5.78h-.34c-1.28,4.31-4.07,6.37-8.48,6.37h-.83a3.15,3.15,0,0,1-3.43-3.28c0-1.18.79-3,3.43-3Zm17.14-2a15.5,15.5,0,0,0,5.83,1.42c.73,0,1.37-.1,1.56-.54-1.42-7.39-4.65-10.68-7.73-10.68-2.79,0-5.14,1.57-6.57,4.8C371.63,370.15,374.13,371.71,377.07,372.94Z"/><path class="cls-2" d="M429.57,381.17h-.93c-4.41,0-8.08-1.86-10-8h-.25a7,7,0,0,1-3.52,4.71c-3.24,1.95-6.57,3.28-9.85,3.28-5.48,0-8.52-3.33-8.52-9.06,0-1.23.05-2.4.15-3.63l1.91-.14c.2,4.06,2.2,6.56,6.9,6.56a17.5,17.5,0,0,0,8-2.45c1.81-1,3.18-2.5,3.18-3.67,0-3.33-1.76-9.85-4.06-18.22a60,60,0,0,1,3.47-5.05l.3.2c1.81,7.05,3.33,14.59,4.65,21.79.88,4.85,4.06,7.4,7.74,7.4h.83Z"/><path class="cls-2" d="M458.76,365.84c-5.68-2.11-10.87-3.43-15.38-3.43a7.84,7.84,0,0,0-6.22,2.45l.59,2.45-1.47,4.4h-.49l-2.4-6.46c.39-5.44,4.75-8.81,10.63-8.81,3.28,0,8.32,1.12,16.06,4.21a23.18,23.18,0,0,0,8.37,1.61h4.26l.1.1-3,5.05c-3.92,0-6.66.83-8.28,1.86l-8.18,5.33a38.28,38.28,0,0,1-21.5,6.57h-2.25a3.15,3.15,0,0,1-3.43-3.28c0-1.18.79-3,3.43-3h3c7.93,0,16.06-2.79,26.15-8.87Zm-12.25-26.35a44.08,44.08,0,0,1,5.88,5.24,20,20,0,0,1-4.06,4.8c-1.91-1.81-3.82-3.38-5.78-5C443.87,342.72,445.19,341,446.51,339.49Zm17.73,29.68.15.05c.19,4.16,3.62,5.68,8.67,5.68h1.32v6.27h-1.52c-6.32,0-10.53-2.21-10.53-8.08a25.34,25.34,0,0,1,.15-2.75Z"/><path class="cls-2" d="M475.46,374.9a11.07,11.07,0,0,0,5.48-1.32c1.72-1,2.6-2.75,2.6-5.29-.1-7.84-.64-16.41-1.42-25.42-.2-2.25-.49-4.31-.49-6.12a4.93,4.93,0,0,1,1.47-3.28,22,22,0,0,1,2.69-2.7l.34.25c-.09,3.18,1.42,7,4,11.21a26.79,26.79,0,0,1-3.09,2.5c.2,5.63.64,11.56.64,17s-.54,9.36-2,12.3c-1,2.49-2.2,4.55-4.45,5.68a14.07,14.07,0,0,1-6.13,1.47h-.73a3.15,3.15,0,0,1-3.43-3.28c0-1.18.79-3,3.43-3Z"/><path class="cls-2" d="M498.57,382a64.63,64.63,0,0,0,.54-9.8v-4.79c0-9-1-22-1.76-30.47a44.49,44.49,0,0,1,4.8-5.19l.44.15c1,10.68,1.27,23.07,1.27,34.48a79.09,79.09,0,0,1-.34,8.08c-.15,2.69-1.47,4.75-4.31,7.88Z"/><path class="cls-2" d="M524.87,376c-5.73,0-10.67-2.69-10.67-9.2a13.46,13.46,0,0,1,3.13-8.43c2.25-2.44,4.7-4.06,7-4.06,2.84,0,5.49,2,7.4,5.53a28.21,28.21,0,0,1,3.13,13.47,23.12,23.12,0,0,1-3.72,12.88c-4.36,6.61-8.52,9.31-12.59,9.31-4.5,0-9.15-1.47-14-4.8l.73-1.57a15.32,15.32,0,0,0,7.15,1.66c5,0,9.9-2.49,14.4-7.49,2.2-2.4,4.26-5.29,4.6-8.18A24.16,24.16,0,0,1,524.87,376Zm-2.15-15.52c-2.31,0-5.49,2.55-5.49,4.36,0,3,4.31,5.19,8.33,5.19a23.11,23.11,0,0,0,5.53-.64C529.77,364.47,526.93,360.5,522.72,360.5Z"/><path class="cls-2" d="M594,383.13c-13.56,0-24-5-24-17.05a24.58,24.58,0,0,1,2.89-11.85l2,.83a24.15,24.15,0,0,0-1.42,7.45c0,9.89,9.74,14,22,14a73.46,73.46,0,0,0,16.75-2.11,38.71,38.71,0,0,0,6.47-2c.39-.15.49-.39.49-.54,0-2.3-2.35-7.1-4.9-12.09a38.57,38.57,0,0,1,3.67-5.54h.25c2.25,4,4.89,10.09,4.89,14.94a14.51,14.51,0,0,1-2.59,8.18C616.24,379.89,603.7,383.13,594,383.13Zm-1.91-32.67c-2-1.91-3.77-3.48-5.73-5.09a44.5,44.5,0,0,1,3.87-4.65,45.22,45.22,0,0,1,5.59,5.24A25.75,25.75,0,0,1,592.09,350.46Zm9.46-.64c-2-1.91-3.77-3.47-5.73-5.09a43.1,43.1,0,0,1,3.87-4.65,46.68,46.68,0,0,1,5.58,5.24A25.81,25.81,0,0,1,601.55,349.82Z"/><path class="cls-2" d="M632.5,382a64.63,64.63,0,0,0,.54-9.8v-4.79c0-9-1-22-1.77-30.47a44.49,44.49,0,0,1,4.8-5.19l.44.15c1,10.68,1.28,23.07,1.28,34.48a76.06,76.06,0,0,1-.35,8.08c-.14,2.69-1.47,4.75-4.31,7.88Z"/><path class="cls-2" d="M657.77,355.9l3.47,6.61a18.4,18.4,0,0,1,2.45,9.3v5.39c0,4.36-2.35,9-6.17,13.61-3,3.14-5.63,4.46-8.08,4.46-3.62,0-7.78-1.32-12.58-3.77l.54-1.67a17.21,17.21,0,0,0,5.43.89c6.91-.05,14-6,17.19-13.23a5.3,5.3,0,0,0,.54-2.15,8.44,8.44,0,0,0-.69-2.6A78,78,0,0,0,654,362c1.12-2.11,2.25-4.11,3.47-6.12Z"/><path class="cls-2" d="M685.24,381.17h-.54c-3.87,0-6.36-.79-8.37-2.79-3-3-3-6.52-3-13.72,0-9.3-.54-19.05-1.27-29.43a43.18,43.18,0,0,1,4.6-4.55l.35.19c.78,10.73.78,23.41.78,35.46v2.79a5.12,5.12,0,0,0,3.67,5.24,10,10,0,0,0,3.14.54h.68Z"/><path class="cls-2" d="M735.39,381.17h-1.22c-6.08,0-8.87-1.86-10.09-4.61h-.3c-2.74,3.24-5.53,4.61-8.37,4.61-2.11,0-4.56-.64-5.34-4.07h-.19a11.13,11.13,0,0,1-8.48,4.07c-2.69,0-4.4-1.28-4.7-4.17h-.19c-3,3.48-7.11,4.17-10.44,4.17h-.83a3.15,3.15,0,0,1-3.43-3.28c0-1.18.79-3,3.43-3h1.67c4.45,0,7.88-1.23,10.33-4.56l2.45-3.82,3.77-1.32.2.25c-1.87,3.23-3.19,5.53-3.19,7a2.42,2.42,0,0,0,2.65,2.45,7.14,7.14,0,0,0,4.26-1.47,10.92,10.92,0,0,0,3.18-4.31l1.18-2.89,3.72-1.71.19.19c-1.47,3.72-2,5.54-2,7.35a2.69,2.69,0,0,0,2.74,2.84,5.76,5.76,0,0,0,3.38-1.08c1.47-1,2.25-2.59,2.84-4.7.19-.78.49-1.71,1-3.87l3.72-2.5.2.15a27.34,27.34,0,0,0-1.23,6.71c0,3.87,3.38,5.29,8,5.29h1.08Zm-26-23.85c-2-1.91-3.77-3.48-5.73-5.1a43.1,43.1,0,0,1,3.87-4.65,46.68,46.68,0,0,1,5.58,5.24A26.29,26.29,0,0,1,709.34,357.32ZM712,346.89c-2-1.91-3.77-3.48-5.73-5.1a44.3,44.3,0,0,1,3.87-4.65,45.94,45.94,0,0,1,5.58,5.24A26.29,26.29,0,0,1,712,346.89Zm6.81,9.79c-2-1.91-3.77-3.48-5.73-5.09a43.27,43.27,0,0,1,3.87-4.66,46.73,46.73,0,0,1,5.58,5.24A25.91,25.91,0,0,1,718.79,356.68Z"/><path class="cls-2" d="M736.47,374.9c3.77,0,7.69-1.52,8.42-4.31l1.42-5.29,3.38-2.45.29.34a26.59,26.59,0,0,0-1.07,5.68,4.88,4.88,0,0,0,1.61,4.07,9.17,9.17,0,0,0,6.08,2h.88v6.27h-1.13c-4.8,0-8.42-1.33-10.09-5h-.19c-1.67,3.28-5.54,5-9.75,5h-.93a3.15,3.15,0,0,1-3.43-3.28c0-1.18.79-3,3.43-3Zm5.39-18.56c-2-1.91-3.78-3.48-5.73-5.1a45.34,45.34,0,0,1,3.86-4.65,46.8,46.8,0,0,1,5.59,5.24A26.29,26.29,0,0,1,741.86,356.34Zm9.45-.64c-2-1.91-3.77-3.48-5.73-5.09a42.14,42.14,0,0,1,3.87-4.65A45.88,45.88,0,0,1,755,351.2,26.19,26.19,0,0,1,751.31,355.7Z"/><path class="cls-2" d="M797,360.21a56.43,56.43,0,0,1,.78,8.71,16.57,16.57,0,0,1-1.76,6.71c-1.86,3.09-4.41,5.39-7.25,5.39-2.1,0-4.36-1.57-6.12-4.07h-.39c-2.2,2.4-5,4.22-8.57,4.22-2.69,0-4.41-1.28-4.7-4.17h-.2c-3,3.48-7.1,4.17-10.43,4.17h-.83a3.14,3.14,0,0,1-3.43-3.28c0-1.18.78-3,3.43-3h1.66c4.46,0,8-1.18,10.34-4.56l2.69-3.87,3.77-1.32.2.25c-2,3.13-3.33,5.58-3.33,7.05a2.33,2.33,0,0,0,2.54,2.45,7.82,7.82,0,0,0,4.36-1.42c1.72-1.28,2-2.7,3.48-7.79l2.94-1.71.29.19a21.74,21.74,0,0,0-.64,4.8,5.29,5.29,0,0,0,5.1,5.63c1.37,0,2.59-.73,2.59-2.2a44.94,44.94,0,0,0-1.22-7.93,36.74,36.74,0,0,1,4.41-4.41Z"/><path class="cls-2" d="M827.26,331a8.76,8.76,0,0,0-.09,1c0,2.89,1.71,6.27,4,9.94a21.89,21.89,0,0,1-3,2.4c.24,6,.39,11.6.39,17.58a32.51,32.51,0,0,1-1.62,9.55c-1.32,3.82-2.84,6.37-5.43,8.28a22.53,22.53,0,0,1-12.3,4.16,39.92,39.92,0,0,1-12.09-2.25v-.54c9.45-1.28,16.89-3.33,21.94-6.37-.25-2-2.7-5.68-5.54-10-3.13-4.8-6.66-9.79-10.67-15.67-3.19-4.65-4.85-7.49-4.85-9.11,0-1.08,1.61-3.77,2.25-4.7l.25-.05a84.62,84.62,0,0,0,8,8.57l-1.57,2.79c4.46,7.05,8.77,13.42,11.66,18.51a17.86,17.86,0,0,1,2.1,8.52l.3.05c2.25-1.61,3.91-4.4,3.91-8.91,0-5-.44-11.21-1.27-19.79-.1-2.2-.59-5.43-.59-7.63a5.39,5.39,0,0,1,1-3.48,21.64,21.64,0,0,1,2.89-3.14Z"/><path class="cls-2" d="M839.65,382a64.63,64.63,0,0,0,.54-9.8v-4.79c0-9-1-22-1.76-30.47a44.49,44.49,0,0,1,4.8-5.19l.44.15c1,10.68,1.27,23.07,1.27,34.48a76.32,76.32,0,0,1-.34,8.08c-.15,2.69-1.47,4.75-4.31,7.88Z"/><path class="cls-2" d="M915.74,364.61a20.18,20.18,0,0,1-5.09.54c-5.29,0-9.35-1.37-10.92-4.89a8.12,8.12,0,0,1-.69-3.33,13.18,13.18,0,0,1,3.43-9.06,8.46,8.46,0,0,1,5.93-3c3.72,0,6.71,3.48,8.81,9.06a33.38,33.38,0,0,1,1.86,11.51,12.13,12.13,0,0,1-2.25,7c4.6,1.52,5.19,2.94,5.19,6.47a12.5,12.5,0,0,1-1.32,5.58c-1,1.86-3.23,4-6,5.83a28.5,28.5,0,0,1-16.74,5.24,17.61,17.61,0,0,1-12.15-4.66,18.25,18.25,0,0,1-5-13.07A37.27,37.27,0,0,1,884,362.36l2,.74a29.88,29.88,0,0,0-1.86,10.28A16.24,16.24,0,0,0,886.9,383a14.5,14.5,0,0,0,11.6,5.58A27.28,27.28,0,0,0,912.66,385a20.85,20.85,0,0,0,6.46-5c0-1.86-9-3.62-17.38-3.62l-.2-.35,2.15-5c8-.93,12.2-2.3,12.2-4.85C915.89,365.69,915.79,365.25,915.74,364.61Zm-19.15,45.84c-2-1.91-3.77-3.48-5.73-5.09a45.56,45.56,0,0,1,3.87-4.65,45.22,45.22,0,0,1,5.59,5.24A25.82,25.82,0,0,1,896.59,410.45Zm9.46-.63c-2-1.91-3.78-3.48-5.73-5.1a44.29,44.29,0,0,1,3.86-4.65,46,46,0,0,1,5.59,5.24A26.29,26.29,0,0,1,906.05,409.82Zm-.35-80.12a44.08,44.08,0,0,1,5.88,5.24,19.83,19.83,0,0,1-4.07,4.8c-1.91-1.82-3.82-3.38-5.77-5.05C903.06,332.93,904.38,331.21,905.7,329.7Zm1.67,21.15c-2.94,0-5.59,2.4-5.59,4.31,0,2.45,4.71,4.26,9.31,4.26a28.2,28.2,0,0,0,4-.19C913.34,353.74,910.7,350.85,907.37,350.85Z"/><path class="cls-2" d="M965.73,376.51c-5.14,0-8.92-1.81-8.92-5.73a14.62,14.62,0,0,1,1.62-5.73c2.06-4.35,7.2-8.81,15.62-13.46l-.29-3.68a42.19,42.19,0,0,1,3.87-4h.54c.19,7.59.19,15.23.29,22.82,0,3.43.39,5.63,1.86,6.9,1.13,1,3,1.28,5.14,1.28h1.18v6.27h-1.08c-4.8,0-8.28-1.28-10.14-6.81A23.42,23.42,0,0,1,965.73,376.51ZM974.4,357c-8.72,4.51-13.28,8.13-13.28,10.73,0,1.91,2.94,2.74,6.27,2.74a23.53,23.53,0,0,0,7.25-1.37Zm-5.78-17.33c-2-1.91-3.77-3.48-5.73-5.1a43.1,43.1,0,0,1,3.87-4.65,46.68,46.68,0,0,1,5.58,5.24A26.29,26.29,0,0,1,968.62,339.69Zm9.45-.64c-2-1.91-3.77-3.48-5.73-5.09a43.27,43.27,0,0,1,3.87-4.66,46.73,46.73,0,0,1,5.58,5.24A25.91,25.91,0,0,1,978.07,339.05Z"/><path class="cls-2" d="M987.72,374.9c4.16,0,7.49-1.37,8.08-4.31.39-1.91.78-3.77,1.27-5.58a24.63,24.63,0,0,1,3.23-2.55l.3.29a17.56,17.56,0,0,0-.79,4.61c0,2.54.64,4.06,2.7,5.43a57.42,57.42,0,0,1,10.13-12.34c3.14-2.74,6.61-5,11-5,7,0,11.07,5.09,11.07,10.82a20.32,20.32,0,0,1-2.5,8.67h6.52v6.27h-1.28a61.23,61.23,0,0,1-14.64-1.72,35.92,35.92,0,0,1-11.41,1.72c-6.37,0-11.17-1.52-13.86-5.15h-.15a11.54,11.54,0,0,1-10.13,5.15h-.59a3.15,3.15,0,0,1-3.43-3.28c0-1.18.78-3,3.43-3Zm26.49,0a37.85,37.85,0,0,0,12.73-2.21c2.4-1,4-2.25,4-3.67-.64-4.21-4.8-7.3-9.16-7.3-5.78,0-11.16,4.75-16.55,12.15A29.54,29.54,0,0,0,1014.21,374.9Z"/><path class="cls-2" d="M1039.78,374.9c4.16,0,7.49-1.37,8.08-4.31.39-1.91.78-3.77,1.27-5.58a24,24,0,0,1,3.23-2.55l.3.29a17.16,17.16,0,0,0-.79,4.61c0,2.54.64,4.06,2.69,5.43a57.78,57.78,0,0,1,10.14-12.34c3.14-2.74,6.61-5,11-5,7,0,11.07,5.09,11.07,10.82a20.32,20.32,0,0,1-2.5,8.67h6.52v6.27h-1.28a61.17,61.17,0,0,1-14.64-1.72,35.92,35.92,0,0,1-11.41,1.72c-6.37,0-11.17-1.52-13.86-5.15h-.15a11.54,11.54,0,0,1-10.13,5.15h-.59a3.14,3.14,0,0,1-3.43-3.28c0-1.18.78-3,3.43-3Zm26.49,0a37.85,37.85,0,0,0,12.73-2.21c2.4-1,4-2.25,4-3.67-.64-4.21-4.8-7.3-9.16-7.3-5.78,0-11.17,4.75-16.55,12.15A29.54,29.54,0,0,0,1066.27,374.9Z"/><path class="cls-2" d="M1119.94,365.84c-5.68-2.11-10.87-3.43-15.37-3.43a7.84,7.84,0,0,0-6.22,2.45l.59,2.45-1.47,4.4H1097l-2.4-6.46c.39-5.44,4.75-8.81,10.62-8.81,3.28,0,8.33,1.12,16.07,4.21a23.18,23.18,0,0,0,8.37,1.61h4.26l.1.1-3,5.05c-3.91,0-6.66.83-8.27,1.86l-8.18,5.33a38.3,38.3,0,0,1-21.5,6.57h-2.25a3.14,3.14,0,0,1-3.43-3.28c0-1.18.78-3,3.43-3h3c7.94,0,16.07-2.79,26.16-8.87Zm-12.24-26.35a44.08,44.08,0,0,1,5.88,5.24,19.83,19.83,0,0,1-4.07,4.8c-1.91-1.81-3.82-3.38-5.78-5C1105.06,342.72,1106.38,341,1107.7,339.49Zm17.73,29.68.15.05c.19,4.16,3.62,5.68,8.66,5.68h1.33v6.27h-1.52c-6.32,0-10.53-2.21-10.53-8.08a25.34,25.34,0,0,1,.15-2.75Z"/><path class="cls-2" d="M1136.64,374.9c3.78,0,7.69-1.52,8.43-4.31l1.42-5.29,3.38-2.45.29.34a26.78,26.78,0,0,0-1.08,5.68,4.86,4.86,0,0,0,1.62,4.07,9.16,9.16,0,0,0,6.07,2h.88v6.27h-1.12c-4.8,0-8.43-1.33-10.09-5h-.2c-1.66,3.28-5.53,5-9.74,5h-.93a3.14,3.14,0,0,1-3.43-3.28c0-1.18.78-3,3.43-3Zm5.39-18.56c-2-1.91-3.77-3.48-5.73-5.1a46.68,46.68,0,0,1,3.87-4.65,46.73,46.73,0,0,1,5.58,5.24A26.29,26.29,0,0,1,1142,356.34Zm9.45-.64c-2-1.91-3.77-3.48-5.73-5.09a44.5,44.5,0,0,1,3.87-4.65,44.46,44.46,0,0,1,5.58,5.24A26.19,26.19,0,0,1,1151.48,355.7Z"/><path class="cls-2" d="M1158.73,374.9c3.63,0,6.47-2.5,8.23-8.67a15,15,0,0,1,3.62-5.93,9.19,9.19,0,0,1,6.17-2.84c6,0,9.5,8.23,10.29,16.8-1,4.46-2.84,6.32-5.19,6.32-4.85,0-9.7-2.2-14.55-5.78H1167c-1.27,4.31-4.07,6.37-8.47,6.37h-.84a3.14,3.14,0,0,1-3.42-3.28c0-1.18.78-3,3.42-3Zm17.14-2a15.5,15.5,0,0,0,5.83,1.42c.73,0,1.37-.1,1.57-.54-1.42-7.39-4.66-10.68-7.74-10.68-2.79,0-5.14,1.57-6.56,4.8C1170.44,370.15,1172.93,371.71,1175.87,372.94Z"/><path class="cls-2" d="M1230.46,376.51c-5.14,0-8.91-1.81-8.91-5.73a14.75,14.75,0,0,1,1.61-5.73c2.06-4.35,7.2-8.81,15.63-13.46l-.3-3.68a43.46,43.46,0,0,1,3.87-4h.54c.2,7.59.2,15.23.29,22.82,0,3.43.39,5.63,1.86,6.9,1.13,1,3,1.28,5.15,1.28h1.17v6.27h-1.08c-4.8,0-8.27-1.28-10.13-6.81A23.46,23.46,0,0,1,1230.46,376.51Zm8.67-19.49c-8.72,4.51-13.27,8.13-13.27,10.73,0,1.91,2.94,2.74,6.27,2.74a23.53,23.53,0,0,0,7.24-1.37Zm-5.78-17.33c-2-1.91-3.77-3.48-5.73-5.1a43.1,43.1,0,0,1,3.87-4.65,45.94,45.94,0,0,1,5.58,5.24A26.29,26.29,0,0,1,1233.35,339.69Zm9.45-.64c-2-1.91-3.77-3.48-5.73-5.09a44.48,44.48,0,0,1,3.87-4.66,46.73,46.73,0,0,1,5.58,5.24A25.91,25.91,0,0,1,1242.8,339.05Z"/><path class="cls-2" d="M1301.52,381.17h-1.22c-6.08,0-8.87-1.86-10.09-4.61h-.3c-2.74,3.24-5.53,4.61-8.37,4.61-2.11,0-4.56-.64-5.34-4.07H1276a11.13,11.13,0,0,1-8.48,4.07c-2.69,0-4.4-1.28-4.7-4.17h-.19c-3,3.48-7.11,4.17-10.44,4.17h-.83a3.15,3.15,0,0,1-3.43-3.28c0-1.18.79-3,3.43-3H1253c4.45,0,7.88-1.23,10.33-4.56l2.45-3.82,3.77-1.32.2.25c-1.86,3.23-3.19,5.53-3.19,7a2.42,2.42,0,0,0,2.65,2.45,7.14,7.14,0,0,0,4.26-1.47,10.92,10.92,0,0,0,3.18-4.31l1.18-2.89,3.72-1.71.19.19c-1.47,3.72-2,5.54-2,7.35a2.69,2.69,0,0,0,2.74,2.84,5.76,5.76,0,0,0,3.38-1.08c1.47-1,2.25-2.59,2.84-4.7.19-.78.49-1.71,1-3.87l3.72-2.5.2.15a27.34,27.34,0,0,0-1.23,6.71c0,3.87,3.38,5.29,8,5.29h1.08Z"/><path class="cls-2" d="M1341,360.21a56.69,56.69,0,0,1,.79,8.71,16.58,16.58,0,0,1-1.77,6.71c-1.86,3.09-4.4,5.39-7.24,5.39-2.11,0-4.36-1.57-6.13-4.07h-.39c-2.2,2.4-4.94,4.22-8.57,4.22-2.69,0-4.41-1.28-4.7-4.17h-.2c-3,3.48-7.1,4.17-10.43,4.17h-.83a3.15,3.15,0,0,1-3.43-3.28c0-1.18.79-3,3.43-3h1.67c4.45,0,8-1.18,10.33-4.56l2.69-3.87,3.77-1.32.2.25c-2,3.13-3.33,5.58-3.33,7.05a2.34,2.34,0,0,0,2.55,2.45,7.79,7.79,0,0,0,4.35-1.42c1.72-1.28,2-2.7,3.48-7.79l2.94-1.71.29.19a21.7,21.7,0,0,0-.63,4.8,5.28,5.28,0,0,0,5.09,5.63c1.37,0,2.6-.73,2.6-2.2a44.16,44.16,0,0,0-1.23-7.93,36.74,36.74,0,0,1,4.41-4.41Z"/><path class="cls-2" d="M1377.18,374.9v6.27h-4.06a23,23,0,0,1-3.72,10c-3.77,5.73-9.21,8.37-11.8,8.37-4.46,0-9.41-2.06-14.11-4.95l.83-1.61a14.86,14.86,0,0,0,7.2,1.76c5,0,9.41-2.45,13.62-6.76,2.35-2.4,4-4.36,4.6-6.85h-2.4c-10,0-15.08-3.19-15.08-10a13.29,13.29,0,0,1,2.49-7.89c1.87-2.69,4.46-4.7,7.55-4.7,4.5,0,9.15,6.32,10.53,16.36Zm-10.67-28.8a24.27,24.27,0,0,1-1.91,3.33,50.21,50.21,0,0,0-12.73,3.68l-.1-.15,1.17-2.06a6,6,0,0,1,2.26-1.61v-.15c-2.31-.69-3.82-2.16-3.82-4.26a6.64,6.64,0,0,1,2.3-4.31,9.29,9.29,0,0,1,5.92-2.79c2,0,3.09,1.12,3.09,2.4a5.09,5.09,0,0,1-1.57,3.18h-.1c-.54-1.08-1-1.76-1.56-1.91a6.26,6.26,0,0,0-1.52-.15c-1.72,0-3.43,1-3.43,1.72,0,2.35,4.11,3.13,7,3.13,1.67,0,3.33-.1,5-.19Zm-.44,21.65a7.16,7.16,0,0,0-5.19-2.74c-2.75,0-5.54,2.35-5.54,4.31,0,2.49,2.3,4,5.34,4.84a33.61,33.61,0,0,0,8.82.74A15.09,15.09,0,0,0,1366.07,367.75Z"/><path class="cls-2" d="M1378.26,374.9c3.63,0,6.47-2.5,8.23-8.67a15,15,0,0,1,3.62-5.93,9.21,9.21,0,0,1,6.17-2.84c6,0,9.5,8.23,10.29,16.8-1,4.46-2.84,6.32-5.19,6.32-4.85,0-9.7-2.2-14.55-5.78h-.34c-1.27,4.31-4.07,6.37-8.47,6.37h-.84a3.14,3.14,0,0,1-3.42-3.28c0-1.18.78-3,3.42-3Zm17.14-2a15.5,15.5,0,0,0,5.83,1.42c.73,0,1.37-.1,1.57-.54-1.42-7.39-4.66-10.68-7.74-10.68-2.79,0-5.14,1.57-6.56,4.8C1390,370.15,1392.46,371.71,1395.4,372.94Z"/><path class="cls-3" d="M652.42,278.93v-8.24L659,270a95.07,95.07,0,0,0,17.63-3.29q6.11-2,8.41-9.23t2.31-23.41V87.71q0-16.47-2.31-23.57t-8.41-9.23q-6.1-2.14-17.63-3.13l-6.6-.66V42.88l49.46,1,42.53-1v7.58l-5.28.66q-9.57,1-14.67,3t-7.09,8.4q-2,6.43-2,21.27V221.24a161.92,161.92,0,0,0,1.82,26.7q1.8,10.56,10,15.5T754,268.38h24.72q28.68,0,41.38-15.33t15-44.34h7.25L839,278.93l-137.81-1Z"/><path class="cls-3" d="M1113.87,270q-13.2-1.3-20.77-8.9t-14.18-23.74L1001.11,43.87H989.9L910.12,237.39q-4.95,11.88-10.39,18.63a31.29,31.29,0,0,1-12.85,9.73,83.47,83.47,0,0,1-19,4.61l-3,.33v8.24l39.89-1,41.87,1v-8.24l-6.59-.66q-12.54-1-18-4.28a10.56,10.56,0,0,1-5.44-9.56,26.28,26.28,0,0,1,1.65-8.41q1.65-4.77,4-10.72l17.8-42.86h93l17.15,42.86q4.6,11.22,4.61,17.81a11.94,11.94,0,0,1-4.94,10.22q-5,3.63-16.49,4.94l-6.59.66v8.24l52.75-1,40.88,1v-8.24ZM943.45,183.65,986.64,79.14l41.54,104.51Z"/><path class="cls-3" d="M1172.39,280.91l-64.62-198.8q-4.29-14.17-11.87-20.61a41.22,41.22,0,0,0-18.13-8.73l-7.58-1.65V42.88l49.45,1,48.79-1v8.24l-9.23,1a67.45,67.45,0,0,0-16.65,4q-7.74,3-7.75,13.19a35.6,35.6,0,0,0,2.31,11.54l50.44,155.61,57.37-155.94a32.46,32.46,0,0,0,2-9.89q0-7.57-5.61-11.7t-15.16-5.44l-13.19-2,1.32-8.57,13.85,1.65q23.73,2.64,29,14.5,5-9.89,14.67-12.53a83.35,83.35,0,0,1,18.63-3l12.2-.66.66,8.57-12.53,1q-21.43,1.65-21.43,18.13a43.64,43.64,0,0,0,3.29,15.5l55.06,149.35,48.47-158.58a38.11,38.11,0,0,0,1.65-9.57q0-7.24-5-10.22t-14.51-4.28l-10.88-1.32V42.88l43.52,1,35-1v8.57L1418,52.77a49,49,0,0,0-18.63,6.43,23.36,23.36,0,0,0-10.39,14l-63.3,207.7h-10.55l-66.59-177.7-65.61,177.7Z"/><path class="cls-3" d="M105.82,280.91A63.64,63.64,0,0,1,82,276.65q-10.67-4.27-19.2-8.54a129.39,129.39,0,0,0-12-5.91,22.41,22.41,0,0,0-8.37-2c-3.06,0-5.2,1.26-6.4,3.78a38.08,38.08,0,0,0-2.79,8.37l-1,4.92H24.08l1.64-38.73-1-42.35h8.2l3.61,15.43a88.42,88.42,0,0,0,13,28.23,77.91,77.91,0,0,0,23.64,22.65q14.28,8.87,32.66,8.86A45,45,0,0,0,125.35,267a37.54,37.54,0,0,0,15.43-13.62q6.08-9.19,6.07-24,0-22-14.28-35.45T93,168.32l-13.79-6.57q-24.62-11.82-36.6-26.1t-12-36.6q0-17.4,8.53-30.86a58.34,58.34,0,0,1,23.47-21Q77.59,39.64,97,39.63q13.46,0,22.65,3.61t14.44,6.24q8.53,4.27,13.46,4.27,5.25,0,6.24-10.18H162l-1,31.52.66,31.84h-8.21q-2-18.39-10.18-31.35a59.34,59.34,0,0,0-19.86-19.86,47.86,47.86,0,0,0-24.78-6.9Q79.22,48.82,67.25,60t-12,28.56q0,18.7,12.14,29.38t31.52,20.18l13.46,6.57a215.76,215.76,0,0,1,31,18.22,68.73,68.73,0,0,1,20,21.83q7,12.48,7.06,31.18,0,19.38-8.7,34.15a60.63,60.63,0,0,1-23.31,22.81A66.61,66.61,0,0,1,105.82,280.91Z"/><path class="cls-3" d="M558.5,280.91a63.64,63.64,0,0,1-23.8-4.26q-10.66-4.27-19.2-8.54a130.66,130.66,0,0,0-12-5.91,22.5,22.5,0,0,0-8.38-2c-3.06,0-5.2,1.26-6.4,3.78a38.08,38.08,0,0,0-2.79,8.37l-1,4.92h-8.21l1.64-38.73-1-42.35h8.2l3.62,15.43a88.17,88.17,0,0,0,13,28.23,77.91,77.91,0,0,0,23.64,22.65q14.28,8.87,32.66,8.86A45,45,0,0,0,578,267a37.54,37.54,0,0,0,15.43-13.62q6.07-9.19,6.07-24,0-22-14.28-35.45t-39.55-25.6l-13.79-6.57q-24.61-11.82-36.6-26.1t-12-36.6q0-17.4,8.53-30.86a58.34,58.34,0,0,1,23.47-21q14.94-7.55,34.31-7.55,13.46,0,22.65,3.61t14.44,6.24q8.53,4.27,13.46,4.27,5.25,0,6.24-10.18h8.2l-1,31.52.66,31.84H606.1q-2-18.39-10.18-31.35a59.34,59.34,0,0,0-19.86-19.86,47.86,47.86,0,0,0-24.78-6.9q-19.38,0-31.35,11.17T508,88.55q0,18.7,12.14,29.38t31.52,20.18l13.46,6.57a215.76,215.76,0,0,1,31,18.22,68.73,68.73,0,0,1,20,21.83q7.07,12.48,7.06,31.18,0,19.38-8.7,34.15a60.63,60.63,0,0,1-23.31,22.81A66.61,66.61,0,0,1,558.5,280.91Z"/></svg>